PathFileType	4	(X/Y/Z)	D:\TRACE\v60_Jaco2_6-2-23\BothDRS_Motion1_5-v60.trc
DataRate	CameraRate	NumFrames	NumMarkers	Units	OrigDataRate	OrigDataStartFrame	OrigNumFrames
100.00	100.00	      31	9	mm	100.00	2574	      6863
Frame#	Time	front left toe			Front right toe			aft left toe			aft right toe			Arm			FL body			FR body			AL Body			AR Body			
		X1	Y1	Z1	X2	Y2	Z2	X3	Y3	Z3	X4	Y4	Z4	X5	Y5	Z5	X6	Y6	Z6	X7	Y7	Z7	X8	Y8	Z8	X9	Y9	Z9	

2574	25.730	-188.84129	115.55594	-318.94968	208.67393	13.47526	-375.72446	-81.23286	12.97711	304.22372	276.12357	108.62625	244.45102	0.21916	1137.12402	-676.80084	-94.88534	578.94104	-466.25070	63.55277	576.21796	-490.73706	47.02484	563.06500	469.09894	203.00641	554.31213	446.95853	
2575	25.740	-188.97433	108.33218	-320.59143	208.22691	13.39987	-375.75726	-82.60043	12.90576	304.11719	276.90982	100.64466	242.40070	-0.20954	1136.59277	-677.36865	-96.05493	579.06372	-466.57211	62.14727	575.58429	-490.26083	45.16367	563.01410	468.86609	200.74675	554.10376	446.85321	
2576	25.750	-188.90723	100.71734	-321.97629	207.41673	13.22310	-375.74023	-82.99415	13.00359	304.11603	276.87820	92.27582	240.90538	-0.42762	1135.51526	-677.96240	-96.71584	578.68359	-466.69315	62.48799	575.63092	-491.28931	44.49431	563.12274	468.61392	200.05167	554.08649	446.66931	
2577	25.760	-188.35316	92.29602	-323.40158	205.91039	12.86376	-376.00989	-84.17712	13.24471	304.08771	277.04156	84.01593	239.69641	-0.92404	1135.24658	-678.55670	-97.25574	578.17749	-466.89758	61.54847	575.24323	-491.35883	42.92669	563.23474	468.60602	198.27638	553.98853	446.19388	
2578	25.770	-188.36681	83.92880	-324.11356	205.33215	12.74035	-375.74554	-85.31690	13.62505	304.12054	276.60416	75.08793	239.25984	-1.40854	1134.96143	-679.28149	-98.01233	577.98352	-467.18555	60.64582	574.84827	-491.62503	41.94857	563.42926	468.46222	197.30128	554.40167	446.03098	
2579	25.780	-188.38649	74.96516	-324.14938	204.41412	12.34244	-375.90411	-85.98241	13.64890	303.91055	276.56934	67.47577	238.74493	-2.01724	1134.14429	-679.79517	-98.79915	577.64600	-467.33768	59.93565	574.45013	-491.72855	39.67006	564.04700	468.00153	195.64281	554.20654	445.90753	
2580	25.790	-188.64391	66.24892	-324.08270	203.10561	11.99660	-376.09219	-87.18986	13.69291	303.87585	276.49026	59.44482	239.09573	-2.94206	1133.88867	-680.35236	-99.94199	577.20239	-467.92545	59.04316	574.18689	-492.09909	38.76530	564.05621	467.74188	194.87270	555.08673	445.84482	
2581	25.800	-189.01668	57.67444	-323.40234	202.73631	11.90891	-375.99722	-88.20867	13.74358	303.78085	275.73889	51.82877	239.49988	-3.76395	1133.66089	-680.90002	-100.54813	576.73627	-468.09100	58.31632	573.80988	-492.25043	37.99639	563.94690	467.79752	193.61395	555.10773	445.37222	
2582	25.810	-190.31377	50.03502	-322.97656	201.60550	11.55128	-376.10876	-89.00565	13.71649	303.61789	275.06488	44.76160	240.40504	-4.73650	1133.12512	-681.52924	-101.56358	576.17322	-468.88889	57.17301	573.53259	-493.13431	36.05709	564.45679	467.06134	192.32814	555.38354	445.12057	
2583	25.820	-191.46677	42.78979	-322.49088	200.32225	11.25034	-376.20419	-90.11363	14.02642	303.50763	273.21616	37.73639	241.20180	-5.95061	1132.59229	-682.17114	-102.13604	575.68512	-469.08127	56.59320	572.92542	-493.04855	35.48795	564.68854	466.87494	191.01733	555.71735	444.80502	
2584	25.830	-192.36530	35.82158	-322.17670	199.93050	11.18632	-376.13864	-91.24044	14.18779	303.53021	271.34448	31.34862	241.57172	-7.54810	1131.76135	-683.38049	-102.98518	575.59747	-469.36880	55.83985	572.50958	-493.52579	34.82995	565.14740	466.53854	190.73181	555.95227	444.51001	
2585	25.840	-193.72935	29.38680	-322.06369	198.42447	10.68091	-376.22913	-92.08113	14.25529	303.27716	269.72470	25.14072	241.83577	-8.18086	1131.01855	-684.07648	-103.66990	575.10321	-469.80838	55.12063	572.14166	-493.92056	33.35053	565.06329	465.96918	188.89297	556.28845	444.62805	
2586	25.850	-195.31279	22.72042	-321.98682	197.63730	10.49579	-376.35092	-92.99238	14.47448	303.18201	268.60739	22.88707	239.95230	-9.44564	1130.31860	-685.21124	-104.99489	574.68188	-470.39774	54.18547	571.76935	-494.19519	32.26628	565.40118	465.82474	187.77353	556.42572	443.67059	
2587	25.860	-196.98100	15.65408	-321.98230	196.77759	10.31761	-376.21475	-93.98019	14.63529	303.21347	268.18082	20.82066	239.66220	-9.78588	1129.86194	-685.91620	-105.68560	573.72308	-470.89209	52.95490	571.24860	-494.79312	30.62343	566.39038	465.16003	186.00349	557.42493	443.25778	
2588	25.870	-198.58095	14.11102	-323.51028	195.69044	10.08038	-376.50696	-94.75144	15.15656	302.98843	267.71118	21.64257	239.68622	-10.96051	1129.29211	-687.19922	-106.20930	572.89246	-471.42746	52.17724	570.57660	-495.05685	29.58310	567.97327	464.66602	184.61404	559.35095	442.76694	
2589	25.880	-200.24260	11.03084	-323.80667	194.54150	10.01502	-376.29535	-95.78813	15.70748	302.92889	266.27304	22.53546	239.55666	-11.84189	1129.26782	-688.83936	-107.45020	572.93213	-472.06497	51.47830	570.58984	-495.74472	27.95511	569.45514	464.31531	183.35208	560.71729	442.48175	
2590	25.890	-201.15599	11.66653	-323.28574	193.11446	11.01751	-376.94000	-96.73798	16.42414	302.64264	264.87299	22.48962	240.61104	-13.27876	1128.69690	-690.88385	-108.46040	574.38342	-472.75977	50.72500	571.43842	-495.97073	26.45211	570.00262	463.75790	181.64720	561.62366	442.18011	
2591	25.900	-201.39427	10.93949	-323.18045	189.58531	13.93061	-375.00189	-97.79284	19.88650	302.37042	263.45749	21.11140	240.79474	-14.79912	1127.94458	-692.28937	-108.72635	575.36896	-473.47189	50.17421	572.78949	-496.66736	25.00371	570.02930	463.16830	180.21512	561.61169	441.97137	
2592	25.910	-202.33884	11.13032	-323.55469	185.53572	17.57644	-370.83054	-96.46490	22.22351	305.41837	262.52710	21.10826	239.45682	-16.11706	1127.83936	-692.46136	-109.25902	575.96576	-474.18546	48.95160	573.37872	-497.08713	23.13350	569.92432	462.35995	178.53296	561.71106	441.02603	
2593	25.920	-203.95168	10.84862	-324.14810	181.75005	25.06187	-368.55597	-94.00006	30.03482	305.47385	262.12906	21.49660	239.86894	-16.88158	1129.41431	-691.94470	-110.58920	575.88580	-475.15909	47.64597	573.30396	-498.45496	22.01068	570.10175	461.35410	177.59628	561.98120	440.26373	
2594	25.930	-204.92238	10.13889	-324.09253	178.95506	32.99020	-367.70544	-93.34655	39.40034	304.26370	260.84518	21.58230	239.59892	-17.33055	1131.34106	-691.83118	-111.66510	575.01624	-476.04599	46.80734	572.59076	-498.90125	20.71387	570.83026	460.70279	176.45941	562.59259	439.54211	
2595	25.940	-205.78523	9.74455	-323.95966	177.95468	43.79394	-369.13565	-93.19276	49.44211	302.82156	259.89514	21.54853	239.65833	-18.33945	1133.00293	-692.30737	-112.95340	574.28094	-476.52859	45.85579	571.99683	-499.81256	19.90344	570.73804	460.17508	175.38527	562.65271	438.79309	
2596	25.950	-206.87711	9.60093	-323.76755	178.18727	55.50436	-371.55539	-95.76533	61.64150	301.19986	259.37747	21.66157	240.02397	-19.08873	1132.75269	-692.85645	-114.32837	573.93585	-476.96289	44.57258	571.60699	-500.40094	19.17019	570.43384	459.42960	174.62740	562.10156	437.98541	
2597	25.960	-207.92020	9.29730	-323.98154	177.47076	67.69583	-374.59103	-99.47609	72.37537	299.86111	258.23154	21.40055	239.47591	-19.29892	1131.31885	-693.31982	-116.00796	574.21045	-477.30328	42.50517	571.40344	-500.80539	18.70207	569.39575	459.07712	174.46399	561.01526	437.21051	
2598	25.970	-209.14917	9.08073	-324.09525	177.20641	79.63374	-377.44315	-102.68249	83.41060	297.34952	257.32712	21.09281	239.46022	-20.76126	1129.64087	-694.30469	-117.22559	573.86572	-477.48285	40.65413	570.95233	-500.42572	18.48119	568.66364	458.80536	173.92352	560.18048	436.84180	
2599	25.980	-210.07852	8.87158	-323.97659	175.70107	91.73215	-380.20795	-106.10026	95.04928	294.55243	256.87576	21.28581	239.36307	-22.94037	1127.92773	-695.15839	-118.98421	573.79077	-477.84161	40.19629	570.95038	-501.60782	17.86982	567.89746	458.28931	173.33437	559.43079	436.29922	
2600	25.990	-210.97667	8.31173	-323.98843	173.79506	102.68719	-382.48788	-107.54173	106.19283	292.06799	255.92566	21.31498	239.29500	-24.44675	1127.30920	-695.71289	-119.94845	573.32013	-478.00333	38.63568	570.20422	-501.46460	17.68390	567.60120	457.86798	173.07886	558.92169	435.63547	
2601	26.000	-211.82401	8.04648	-323.87195	172.12457	113.46492	-384.32745	-109.01515	117.60294	289.81992	254.94005	21.17001	239.15340	-26.78379	1126.99072	-695.93091	-120.91875	572.72589	-478.17883	37.21611	569.62549	-501.92023	17.11901	567.57343	457.51065	172.68413	558.81915	435.38309	
2602	26.010	-213.16446	7.94113	-323.91443	170.63533	123.34799	-385.71121	-109.31375	127.97637	288.30161	254.12332	21.27921	239.17946	-28.67422	1126.88989	-695.97852	-122.22688	572.20496	-478.58774	36.40195	568.86469	-502.37720	16.70158	567.70233	457.30164	172.46657	559.02020	435.17456	
2603	26.020	-214.12143	7.53504	-324.05521	169.55164	131.23616	-387.09171	-109.13752	136.58672	287.29459	253.09518	21.44827	239.00670	-29.95555	1126.94275	-696.19946	-123.46178	571.36121	-478.51755	34.41444	568.14325	-503.02670	16.44241	567.81665	457.15579	171.58969	558.90485	434.38040	
2604	26.030	-214.77966	7.55129	-324.01065	168.26009	136.54245	-387.89798	-110.43151	142.81432	286.52283	252.39001	21.41062	238.88225	-30.69022	1126.51538	-696.67334	-124.85960	571.03650	-478.65903	34.31713	567.68481	-503.13547	16.20449	568.01514	457.03024	171.23285	559.16522	433.96420	
